<mxfile host="Electron" modified="2023-06-14T23:27:54.460Z" agent="Mozilla/5.0 (Macintosh; Intel Mac OS X 10_15_7) AppleWebKit/537.36 (KHTML, like Gecko) draw.io/21.4.0 Chrome/112.0.5615.204 Electron/24.5.1 Safari/537.36" etag="cJ68Y3YuibTVZCMuIxKx" version="21.4.0" type="device">
  <diagram name="Page-1" id="B-oGsAgyVyiIvw32APL8">
    <mxGraphModel dx="1187" dy="813" grid="1" gridSize="10" guides="1" tooltips="1" connect="1" arrows="1" fold="1" page="1" pageScale="1" pageWidth="850" pageHeight="1100" math="0" shadow="0">
      <root>
        <mxCell id="0" />
        <mxCell id="1" parent="0" />
        <mxCell id="marWW3CtwDofuiBmwwLB-1" value="Call Frame" style="rounded=1;whiteSpace=wrap;html=1;arcSize=5;fontFamily=SF Mono;fillColor=#f5f5f5;fontColor=#333333;strokeColor=#666666;" vertex="1" parent="1">
          <mxGeometry x="200" y="340" width="310" height="40" as="geometry" />
        </mxCell>
        <mxCell id="marWW3CtwDofuiBmwwLB-2" value="Call Frame" style="rounded=1;whiteSpace=wrap;html=1;arcSize=5;fontFamily=SF Mono;fillColor=#f5f5f5;fontColor=#333333;strokeColor=#666666;" vertex="1" parent="1">
          <mxGeometry x="200" y="380" width="310" height="40" as="geometry" />
        </mxCell>
        <mxCell id="marWW3CtwDofuiBmwwLB-3" value="..." style="rounded=1;whiteSpace=wrap;html=1;arcSize=5;fontFamily=SF Mono;fillColor=#f5f5f5;fontColor=#333333;strokeColor=#666666;" vertex="1" parent="1">
          <mxGeometry x="200" y="420" width="310" height="40" as="geometry" />
        </mxCell>
        <mxCell id="marWW3CtwDofuiBmwwLB-4" value="Call Frame" style="rounded=1;whiteSpace=wrap;html=1;arcSize=5;fontFamily=SF Mono;fillColor=#f5f5f5;fontColor=#333333;strokeColor=#666666;" vertex="1" parent="1">
          <mxGeometry x="200" y="460" width="310" height="40" as="geometry" />
        </mxCell>
        <mxCell id="marWW3CtwDofuiBmwwLB-5" value="" style="rounded=1;whiteSpace=wrap;html=1;arcSize=1;fontFamily=SF Mono;fillColor=#00CC66;strokeColor=#666666;" vertex="1" parent="1">
          <mxGeometry x="200" y="70" width="310" height="270" as="geometry" />
        </mxCell>
        <mxCell id="marWW3CtwDofuiBmwwLB-6" value="Call Frame" style="text;html=1;strokeColor=none;fillColor=none;align=center;verticalAlign=middle;whiteSpace=wrap;rounded=0;fontFamily=SF Mono;" vertex="1" parent="1">
          <mxGeometry x="210" y="70" width="80" height="30" as="geometry" />
        </mxCell>
        <mxCell id="marWW3CtwDofuiBmwwLB-43" value="" style="group;aspect=fixed;" vertex="1" connectable="0" parent="1">
          <mxGeometry x="207" y="109" width="295.87" height="220" as="geometry" />
        </mxCell>
        <mxCell id="marWW3CtwDofuiBmwwLB-25" value="" style="rounded=1;whiteSpace=wrap;html=1;arcSize=5;fontFamily=SF Mono;fillColor=#CCFFCC;fontColor=#333333;strokeColor=#666666;" vertex="1" parent="marWW3CtwDofuiBmwwLB-43">
          <mxGeometry x="60.69128205128206" y="30.3448275862069" width="45.51846153846154" height="189.6551724137931" as="geometry" />
        </mxCell>
        <mxCell id="marWW3CtwDofuiBmwwLB-26" value="OPD_1" style="rounded=1;whiteSpace=wrap;html=1;arcSize=5;fontFamily=SF Mono;fillColor=#CCFFCC;fontColor=#333333;strokeColor=#666666;" vertex="1" parent="marWW3CtwDofuiBmwwLB-43">
          <mxGeometry x="60.69128205128206" y="30.3448275862069" width="45.51846153846154" height="37.931034482758626" as="geometry" />
        </mxCell>
        <mxCell id="marWW3CtwDofuiBmwwLB-27" value="OPD_2" style="rounded=1;whiteSpace=wrap;html=1;arcSize=5;fontFamily=SF Mono;fillColor=#CCFFCC;fontColor=#333333;strokeColor=#666666;" vertex="1" parent="marWW3CtwDofuiBmwwLB-43">
          <mxGeometry x="60.69128205128206" y="68.27586206896551" width="45.51846153846154" height="37.931034482758626" as="geometry" />
        </mxCell>
        <mxCell id="marWW3CtwDofuiBmwwLB-28" value="OPD_3" style="rounded=1;whiteSpace=wrap;html=1;arcSize=5;fontFamily=SF Mono;fillColor=#CCFFCC;fontColor=#333333;strokeColor=#666666;" vertex="1" parent="marWW3CtwDofuiBmwwLB-43">
          <mxGeometry x="60.69128205128206" y="106.20689655172414" width="45.51846153846154" height="37.931034482758626" as="geometry" />
        </mxCell>
        <mxCell id="marWW3CtwDofuiBmwwLB-29" value="..." style="rounded=1;whiteSpace=wrap;html=1;arcSize=5;fontFamily=SF Mono;fillColor=#CCFFCC;fontColor=#333333;strokeColor=#666666;" vertex="1" parent="marWW3CtwDofuiBmwwLB-43">
          <mxGeometry x="60.69128205128206" y="144.13793103448276" width="45.51846153846154" height="37.931034482758626" as="geometry" />
        </mxCell>
        <mxCell id="marWW3CtwDofuiBmwwLB-30" value="OPD_N" style="rounded=1;whiteSpace=wrap;html=1;arcSize=5;fontFamily=SF Mono;fillColor=#CCFFCC;fontColor=#333333;strokeColor=#666666;" vertex="1" parent="marWW3CtwDofuiBmwwLB-43">
          <mxGeometry x="60.69128205128206" y="182.0689655172414" width="45.51846153846154" height="37.931034482758626" as="geometry" />
        </mxCell>
        <mxCell id="marWW3CtwDofuiBmwwLB-31" value="" style="rounded=1;whiteSpace=wrap;html=1;arcSize=5;fontFamily=SF Mono;fillColor=#CCFFFF;" vertex="1" parent="marWW3CtwDofuiBmwwLB-43">
          <mxGeometry x="189.6602564102564" y="30.3448275862069" width="45.51846153846154" height="189.6551724137931" as="geometry" />
        </mxCell>
        <mxCell id="marWW3CtwDofuiBmwwLB-32" value="OP_a" style="rounded=1;whiteSpace=wrap;html=1;arcSize=5;fontFamily=SF Mono;fillColor=#CCFFFF;" vertex="1" parent="marWW3CtwDofuiBmwwLB-43">
          <mxGeometry x="189.6602564102564" y="30.3448275862069" width="45.51846153846154" height="37.931034482758626" as="geometry" />
        </mxCell>
        <mxCell id="marWW3CtwDofuiBmwwLB-33" value="OP_b" style="rounded=1;whiteSpace=wrap;html=1;arcSize=5;fontFamily=SF Mono;fillColor=#CCFFFF;" vertex="1" parent="marWW3CtwDofuiBmwwLB-43">
          <mxGeometry x="189.6602564102564" y="68.27586206896551" width="45.51846153846154" height="37.931034482758626" as="geometry" />
        </mxCell>
        <mxCell id="marWW3CtwDofuiBmwwLB-34" value="OP_c" style="rounded=1;whiteSpace=wrap;html=1;arcSize=5;fontFamily=SF Mono;fillColor=#CCFFFF;" vertex="1" parent="marWW3CtwDofuiBmwwLB-43">
          <mxGeometry x="189.6602564102564" y="106.20689655172414" width="45.51846153846154" height="37.931034482758626" as="geometry" />
        </mxCell>
        <mxCell id="marWW3CtwDofuiBmwwLB-35" value="..." style="rounded=1;whiteSpace=wrap;html=1;arcSize=5;fontFamily=SF Mono;fillColor=#CCFFFF;" vertex="1" parent="marWW3CtwDofuiBmwwLB-43">
          <mxGeometry x="189.6602564102564" y="144.13793103448276" width="45.51846153846154" height="37.931034482758626" as="geometry" />
        </mxCell>
        <mxCell id="marWW3CtwDofuiBmwwLB-36" value="OP_X" style="rounded=1;whiteSpace=wrap;html=1;arcSize=5;fontFamily=SF Mono;fillColor=#CCFFFF;" vertex="1" parent="marWW3CtwDofuiBmwwLB-43">
          <mxGeometry x="189.6602564102564" y="182.0689655172414" width="45.51846153846154" height="37.931034482758626" as="geometry" />
        </mxCell>
        <mxCell id="marWW3CtwDofuiBmwwLB-37" value="Stack" style="text;html=1;strokeColor=none;fillColor=none;align=center;verticalAlign=middle;whiteSpace=wrap;rounded=0;fontFamily=SF Mono;" vertex="1" parent="marWW3CtwDofuiBmwwLB-43">
          <mxGeometry x="60.69128205128206" width="45.51846153846154" height="22.758620689655174" as="geometry" />
        </mxCell>
        <mxCell id="marWW3CtwDofuiBmwwLB-38" value="Code" style="text;html=1;strokeColor=none;fillColor=none;align=center;verticalAlign=middle;whiteSpace=wrap;rounded=0;fontFamily=SF Mono;" vertex="1" parent="marWW3CtwDofuiBmwwLB-43">
          <mxGeometry x="189.6602564102564" width="45.51846153846154" height="22.758620689655174" as="geometry" />
        </mxCell>
        <mxCell id="marWW3CtwDofuiBmwwLB-39" value="" style="endArrow=classic;html=1;rounded=0;entryX=0;entryY=0;entryDx=0;entryDy=0;" edge="1" parent="marWW3CtwDofuiBmwwLB-43" target="marWW3CtwDofuiBmwwLB-26">
          <mxGeometry width="50" height="50" relative="1" as="geometry">
            <mxPoint y="30.3448275862069" as="sourcePoint" />
            <mxPoint x="30.34564102564103" y="30.3448275862069" as="targetPoint" />
          </mxGeometry>
        </mxCell>
        <mxCell id="marWW3CtwDofuiBmwwLB-40" value="SP" style="text;html=1;strokeColor=none;fillColor=none;align=center;verticalAlign=middle;whiteSpace=wrap;rounded=0;fontFamily=SF Mono;" vertex="1" parent="marWW3CtwDofuiBmwwLB-43">
          <mxGeometry x="7.586410256410257" y="7.586206896551725" width="45.51846153846154" height="22.758620689655174" as="geometry" />
        </mxCell>
        <mxCell id="marWW3CtwDofuiBmwwLB-41" value="" style="endArrow=classic;html=1;rounded=0;entryX=1;entryY=0;entryDx=0;entryDy=0;" edge="1" parent="marWW3CtwDofuiBmwwLB-43" target="marWW3CtwDofuiBmwwLB-33">
          <mxGeometry width="50" height="50" relative="1" as="geometry">
            <mxPoint x="295.87000000000006" y="68.27586206896551" as="sourcePoint" />
            <mxPoint x="197.24666666666667" y="174.48275862068965" as="targetPoint" />
          </mxGeometry>
        </mxCell>
        <mxCell id="marWW3CtwDofuiBmwwLB-42" value="PC" style="text;html=1;strokeColor=none;fillColor=none;align=center;verticalAlign=middle;whiteSpace=wrap;rounded=0;fontFamily=SF Mono;" vertex="1" parent="marWW3CtwDofuiBmwwLB-43">
          <mxGeometry x="242.76512820512824" y="45.51724137931035" width="45.51846153846154" height="22.758620689655174" as="geometry" />
        </mxCell>
        <mxCell id="marWW3CtwDofuiBmwwLB-44" value="instruction cycle" style="ellipse;whiteSpace=wrap;html=1;aspect=fixed;fontFamily=SF Mono;fillColor=#dae8fc;strokeColor=#6c8ebf;" vertex="1" parent="1">
          <mxGeometry x="590" y="120" width="110" height="110" as="geometry" />
        </mxCell>
        <mxCell id="marWW3CtwDofuiBmwwLB-45" value="" style="endArrow=classic;html=1;rounded=0;" edge="1" parent="1">
          <mxGeometry width="50" height="50" relative="1" as="geometry">
            <mxPoint x="580" y="166" as="sourcePoint" />
            <mxPoint x="520" y="166" as="targetPoint" />
          </mxGeometry>
        </mxCell>
        <mxCell id="marWW3CtwDofuiBmwwLB-46" value="" style="endArrow=classic;html=1;rounded=0;" edge="1" parent="1">
          <mxGeometry width="50" height="50" relative="1" as="geometry">
            <mxPoint x="520" y="190" as="sourcePoint" />
            <mxPoint x="580" y="190" as="targetPoint" />
          </mxGeometry>
        </mxCell>
      </root>
    </mxGraphModel>
  </diagram>
</mxfile>
